<?xml version="1.0" standalone="no"?>
<!DOCTYPE svg PUBLIC "-//W3C//DTD SVG 20010904//EN"
 "http://www.w3.org/TR/2001/REC-SVG-20010904/DTD/svg10.dtd">
<svg version="1.0" xmlns="http://www.w3.org/2000/svg"
 width="368.000000pt" height="368.000000pt" viewBox="0 0 368.000000 368.000000"
 preserveAspectRatio="xMidYMid meet">
<metadata>
Created by potrace 1.11, written by Peter Selinger 2001-2013
</metadata>
<g transform="translate(0.000000,368.000000) scale(0.100000,-0.100000)"
fill="#000000" stroke="none">
<path d="M1714 3658 c-16 -4 -44 -9 -61 -10 -18 -1 -33 -6 -33 -10 0 -4 -3 -7
-7 -6 -26 6 -161 -44 -175 -66 -4 -6 -8 -8 -8 -4 0 7 -45 -12 -115 -50 -16 -9
-35 -22 -41 -31 -8 -10 -30 -15 -66 -15 -36 -1 -60 -6 -71 -17 -9 -9 -14 -19
-11 -21 2 -3 -6 -5 -18 -4 -13 1 -27 10 -33 23 -8 19 -15 21 -51 16 -26 -3
-44 -1 -48 6 -4 6 -15 11 -25 11 -11 0 -21 9 -24 21 -4 15 -11 20 -22 15 -9
-3 -30 -6 -46 -6 -28 0 -28 -1 -11 -19 9 -10 21 -18 26 -17 5 1 11 -5 13 -11
5 -14 -43 -37 -58 -27 -5 3 -9 0 -9 -5 0 -6 -12 -11 -26 -11 -17 0 -41 16 -75
50 -27 28 -58 50 -69 50 -13 0 -20 7 -20 20 0 18 -7 20 -76 20 -62 0 -80 -4
-93 -18 -9 -10 -23 -21 -31 -24 -23 -8 -100 -180 -100 -222 0 -45 26 -99 72
-148 26 -29 62 -73 78 -98 16 -25 36 -52 45 -61 12 -12 14 -27 9 -58 -6 -39
-4 -43 35 -79 l42 -39 -17 -36 c-10 -20 -22 -37 -26 -37 -5 0 -6 -4 -3 -10 3
-5 2 -10 -3 -10 -5 0 -17 -19 -28 -42 -10 -24 -22 -46 -27 -49 -5 -3 -8 -9 -8
-13 1 -3 1 -7 0 -8 -1 -3 -4 -16 -14 -63 -3 -16 -8 -50 -11 -75 -12 -107 -41
-179 -66 -164 -4 3 -8 0 -8 -5 0 -6 -3 -10 -8 -10 -19 3 -32 -3 -62 -31 -18
-16 -29 -30 -26 -30 4 0 2 -8 -3 -17 -16 -32 -31 -185 -30 -320 0 -83 2 -99
20 -190 6 -29 9 -54 7 -56 -2 -2 3 -11 11 -20 7 -10 10 -17 7 -17 -4 0 -2 -9
4 -21 12 -21 14 -85 6 -124 -2 -11 -5 -20 -6 -20 -4 0 0 -385 4 -418 3 -22 -1
-58 -9 -80 -14 -45 -29 -115 -24 -119 1 -2 -3 -13 -9 -24 -12 -22 -18 -51 -27
-124 -3 -24 -7 -46 -9 -49 -6 -8 -15 -114 -17 -176 0 -27 -6 -75 -11 -105 -6
-30 -11 -61 -11 -67 0 -7 -3 -13 -6 -13 -4 0 -6 -12 -6 -26 1 -15 -4 -43 -11
-62 -10 -31 -22 -41 -88 -72 l-76 -37 25 -29 c14 -16 25 -32 25 -36 0 -5 725
-8 1612 -8 l1612 0 -22 20 c-12 11 -24 20 -28 20 -4 0 -21 10 -38 23 -34 26
-127 72 -166 82 -14 4 -52 17 -85 30 -33 12 -91 32 -130 45 -38 12 -78 26 -87
31 -10 5 -25 9 -33 9 -30 0 -74 30 -146 100 -39 39 -76 70 -81 70 -18 0 -39
30 -31 42 4 7 8 94 9 193 0 99 4 191 7 204 13 51 29 97 45 131 8 19 23 55 33
80 9 25 19 43 21 40 10 -13 108 106 152 185 33 58 91 209 101 263 8 43 23 183
30 277 3 33 8 83 13 110 8 56 8 86 -2 195 -8 92 -14 128 -27 152 -5 10 -7 18
-4 18 3 0 -2 11 -11 25 -9 14 -13 25 -10 25 4 0 1 6 -6 14 -7 8 -16 12 -20 10
-14 -9 -51 66 -63 126 -5 29 -52 100 -66 100 -9 0 -20 7 -23 16 -10 26 -7 64
5 64 22 0 -1 64 -35 95 -27 24 -33 38 -33 70 0 23 -10 56 -22 77 -33 55 -51
120 -56 203 -5 78 -15 156 -21 166 -7 11 27 70 37 64 9 -6 35 59 44 108 5 22
3 37 -3 37 -5 0 -15 14 -22 30 -10 25 -18 30 -46 30 -19 0 -34 5 -34 10 0 6
-16 10 -35 10 -19 0 -35 -4 -35 -10 0 -5 -13 -10 -30 -10 -16 0 -30 -4 -30
-10 0 -5 -13 -10 -30 -10 -16 0 -30 -4 -30 -10 0 -5 -11 -10 -25 -10 -14 0
-25 -5 -25 -11 0 -21 -108 8 -215 57 -74 33 -123 55 -135 59 -3 1 -12 4 -20 8
-26 10 -87 13 -116 5z m-1159 -1572 c8 -7 12 -16 10 -18 -3 -3 6 -15 20 -28
30 -28 35 -63 8 -53 -10 4 -24 13 -32 21 -7 7 -20 11 -27 8 -8 -3 -15 0 -16 7
-4 36 -4 43 4 60 10 21 15 21 33 3z m148 -671 c35 0 47 -4 48 -15 1 -8 3 -35
4 -60 2 -25 4 -47 6 -50 2 -7 9 -58 12 -97 1 -17 6 -29 11 -26 5 3 6 0 4 -8
-3 -8 1 -29 8 -48 8 -18 14 -42 14 -52 0 -9 6 -24 13 -31 6 -7 14 -22 15 -33
2 -11 9 -23 15 -27 7 -4 8 -8 4 -8 -4 0 13 -40 38 -88 25 -49 45 -100 45 -113
0 -16 -18 -46 -48 -80 -27 -29 -59 -78 -72 -106 -13 -29 -26 -53 -30 -53 -4 0
-19 -26 -33 -58 -25 -53 -32 -60 -70 -72 -23 -6 -64 -22 -92 -35 -113 -52
-166 -75 -174 -75 -4 0 -6 17 -5 37 1 21 5 74 7 118 3 44 11 103 17 130 13 56
15 63 24 120 4 22 13 60 21 85 8 25 16 54 18 65 9 49 20 74 34 80 33 12 132
91 145 114 15 28 13 48 -13 108 -11 25 -22 78 -25 117 -6 93 -12 140 -21 162
-5 14 -3 16 13 8 10 -4 40 -9 67 -9z m1611 -457 c-2 -18 -6 -44 -9 -58 -3 -14
-7 -45 -10 -70 -4 -43 -35 -144 -48 -156 -6 -6 -87 55 -87 66 0 3 9 16 20 28
11 12 20 26 20 32 0 5 3 10 8 10 10 0 34 45 71 133 23 54 41 62 35 15z"/>
</g>
</svg>
